<svg viewBox="0 0 820 360" width="100%" role="img" aria-label="Spanish, ~300 tokens (n=40)" xmlns="http://www.w3.org/2000/svg" style="font-family:inherit;max-width:100%">
<text x="250" y="18" font-size="13" font-weight="600" fill="var(--text-1)">Spanish, ~300 tokens (n=40)</text>
<text x="250" y="34" font-size="11" fill="var(--text-2)">Median z-score per variant · label = z · share detected at 1 % FPR (z ≥ 2.33)</text>
<line x1="250.0" y1="64" x2="250.0" y2="330" stroke="var(--grid)" stroke-width="1"/>
<text x="250.0" y="344" text-anchor="middle" font-size="11" fill="var(--text-2)">0</text>
<line x1="445.8" y1="64" x2="445.8" y2="330" stroke="var(--grid)" stroke-width="1"/>
<text x="445.8" y="344" text-anchor="middle" font-size="11" fill="var(--text-2)">5</text>
<line x1="341.1" y1="60" x2="341.1" y2="330" stroke="var(--text-2)" stroke-width="1.5" stroke-dasharray="4 3"/>
<text x="337.1" y="54" text-anchor="end" font-size="11" fill="var(--text-2)">z = 2.33 (1 % FPR)</text>
<line x1="406.7" y1="60" x2="406.7" y2="330" stroke="var(--text-2)" stroke-width="1.5" stroke-dasharray="4 3"/>
<text x="410.7" y="54" text-anchor="start" font-size="11" fill="var(--text-2)">z = 4</text>
<text x="240" y="90" text-anchor="end" font-size="12.5" fill="var(--text-1)">No watermark (control)</text>
<text x="258.0" y="90" font-size="12" fill="var(--text-1)" font-variant-numeric="tabular-nums">-0.3 · 5 % detected</text>
<text x="240" y="122" text-anchor="end" font-size="12.5" fill="var(--text-1)">Watermarked, untouched</text>
<rect x="250.0" y="109" width="351.9" height="18" fill="var(--bar)"/>
<text x="609.9" y="122" font-size="12" fill="var(--text-1)" font-variant-numeric="tabular-nums">9.0 · 100 % detected</text>
<text x="240" y="154" text-anchor="end" font-size="12.5" fill="var(--text-1)">+ Unicode cleaner (&quot;skill&quot;)</text>
<rect x="250.0" y="141" width="351.9" height="18" fill="var(--bar)"/>
<text x="609.9" y="154" font-size="12" fill="var(--text-1)" font-variant-numeric="tabular-nums">9.0 · 100 % detected</text>
<text x="240" y="186" text-anchor="end" font-size="12.5" fill="var(--text-1)">Delete 30 % of words</text>
<rect x="250.0" y="173" width="110.7" height="18" fill="var(--bar)"/>
<text x="368.7" y="186" font-size="12" fill="var(--text-1)" font-variant-numeric="tabular-nums">2.8 · 62 % detected</text>
<text x="240" y="218" text-anchor="end" font-size="12.5" fill="var(--text-1)">Round-trip via English</text>
<rect x="250.0" y="205" width="145.7" height="18" fill="var(--bar)"/>
<text x="403.7" y="218" font-size="12" fill="var(--text-1)" font-variant-numeric="tabular-nums">3.7 · 80 % detected</text>
<text x="240" y="250" text-anchor="end" font-size="12.5" fill="var(--text-1)">Round-trip via Chinese</text>
<rect x="250.0" y="237" width="17.6" height="18" fill="var(--bar)"/>
<text x="275.6" y="250" font-size="12" fill="var(--text-1)" font-variant-numeric="tabular-nums">0.4 · 2 % detected</text>
<text x="240" y="282" text-anchor="end" font-size="12.5" fill="var(--text-1)">Paraphrase with another model</text>
<rect x="250.0" y="269" width="57.3" height="18" fill="var(--bar)"/>
<text x="315.3" y="282" font-size="12" fill="var(--text-1)" font-variant-numeric="tabular-nums">1.5 · 38 % detected</text>
<text x="240" y="314" text-anchor="end" font-size="12.5" fill="var(--text-1)">SIRA (70 % mask + fill-in)</text>
<rect x="250.0" y="301" width="49.1" height="18" fill="var(--bar)"/>
<text x="307.1" y="314" font-size="12" fill="var(--text-1)" font-variant-numeric="tabular-nums">1.3 · 30 % detected</text>
<line x1="250" y1="64" x2="250" y2="330" stroke="var(--text-2)" stroke-width="1"/>
</svg>